<?xml version="1.0" standalone="no"?>
<!DOCTYPE svg PUBLIC "-//W3C//DTD SVG 20010904//EN"
 "http://www.w3.org/TR/2001/REC-SVG-20010904/DTD/svg10.dtd">
<svg version="1.0" xmlns="http://www.w3.org/2000/svg"
 width="270.000000pt" height="270.000000pt" viewBox="0 0 270.000000 270.000000"
 preserveAspectRatio="xMidYMid meet">
<metadata>
Created by potrace 1.11, written by Peter Selinger 2001-2013
</metadata>
<g transform="translate(0.000000,270.000000) scale(0.100000,-0.100000)"
fill="#000000" stroke="none">
<path d="M1671 2604 c-123 -27 -217 -130 -282 -309 -6 -16 -10 -31 -10 -32 0
-2 -6 -22 -12 -45 -32 -107 4 -302 75 -405 130 -190 377 -142 503 99 63 120
93 287 72 402 -18 102 -83 207 -169 270 -43 32 -97 38 -177 20z"/>
<path d="M720 2449 c-49 -7 -130 -37 -130 -48 0 -3 -11 -18 -25 -33 -65 -70
-88 -217 -54 -348 26 -104 87 -225 143 -287 195 -216 459 -213 558 5 54 118
38 265 -46 432 -20 40 -42 78 -49 86 -6 7 -25 31 -42 52 -84 108 -219 162
-355 141z"/>
<path d="M2333 1911 c-36 -9 -105 -49 -145 -83 -55 -48 -124 -156 -134 -213
-3 -11 -6 -68 -8 -127 -3 -89 0 -117 18 -171 27 -81 62 -127 123 -163 41 -23
59 -27 124 -27 67 0 85 4 143 33 118 60 197 171 232 328 42 188 -35 378 -170
417 -48 14 -138 17 -183 6z"/>
<path d="M288 1686 c-1 -2 -26 -6 -55 -9 -68 -7 -135 -38 -160 -73 -49 -71
-67 -127 -67 -209 -1 -117 44 -220 141 -319 38 -39 137 -116 149 -116 3 0 18
-8 32 -18 77 -52 200 -67 277 -33 101 45 157 137 158 259 2 142 -25 232 -97
323 -69 88 -207 169 -314 185 -21 3 -42 7 -49 9 -6 2 -13 2 -15 1z"/>
<path d="M1287 1370 c-180 -76 -371 -291 -520 -585 -25 -49 -48 -101 -52 -115
-4 -14 -11 -29 -15 -35 -9 -12 -47 -144 -57 -200 -10 -60 -7 -157 7 -199 17
-51 87 -118 141 -134 133 -38 320 -5 544 96 44 20 105 50 135 67 83 47 142 73
175 80 123 25 244 26 340 3 85 -20 133 -14 218 26 201 97 250 227 154 406 -69
129 -219 274 -433 418 -201 136 -337 192 -479 198 -82 3 -96 1 -158 -26z"/>
</g>
</svg>
